<svg width="480" height="480" viewBox="0 0 480 480" fill="none" xmlns="http://www.w3.org/2000/svg">
  <defs>
    <linearGradient id="bgGrad" x1="0" y1="0" x2="1" y2="1">
      <stop offset="0" stop-color="#F9FAFB"/>
      <stop offset="1" stop-color="#F0FDF4"/>
    </linearGradient>
    <linearGradient id="shieldGrad" x1="0" y1="0" x2="1" y2="1">
      <stop offset="0" stop-color="#10B981"/>
      <stop offset="1" stop-color="#059669"/>
    </linearGradient>
    <linearGradient id="paperGrad" x1="0" y1="0" x2="1" y2="1">
      <stop offset="0" stop-color="#FFFFFF"/>
      <stop offset="1" stop-color="#F3F4F6"/>
    </linearGradient>
    <filter id="shadow" x="-20%" y="-20%" width="140%" height="140%">
      <feDropShadow dx="0" dy="8" stdDeviation="12" flood-color="#0F172A" flood-opacity="0.08"/>
    </filter>
  </defs>

  <!-- Background -->
  <rect width="480" height="480" rx="40" fill="url(#bgGrad)"/>

  <!-- Receipt Card -->
  <g filter="url(#shadow)" transform="translate(90,80)">
    <rect width="300" height="340" rx="20" fill="url(#paperGrad)"/>
    <rect x="40" y="50" width="220" height="14" rx="7" fill="#E5E7EB"/>
    <rect x="40" y="90" width="160" height="10" rx="5" fill="#E5E7EB"/>
    <rect x="40" y="110" width="180" height="10" rx="5" fill="#E5E7EB"/>
    <line x1="40" y1="150" x2="260" y2="150" stroke="#E5E7EB" stroke-width="1.5" stroke-dasharray="6 6"/>
    <rect x="40" y="170" width="190" height="10" rx="5" fill="#E5E7EB"/>
    <rect x="40" y="190" width="140" height="10" rx="5" fill="#E5E7EB"/>
    <rect x="40" y="250" width="120" height="18" rx="9" fill="#E5E7EB"/>
  </g>

  <!-- Shield Badge -->
  <g filter="url(#shadow)" transform="translate(270,260)">
    <circle cx="70" cy="70" r="70" fill="#ECFDF5"/>
    <path d="M70 20C90 20 110 28 118 40C126 52 126 68 126 90C126 122 106 148 70 164C34 148 14 122 14 90C14 68 14 52 22 40C30 28 50 20 70 20Z" fill="url(#shieldGrad)"/>
    <path d="M52 90L66 104L92 76" stroke="white" stroke-width="8" stroke-linecap="round" stroke-linejoin="round"/>
  </g>
</svg>
